# xmcd
#
# Track frame offsets: 
#        150
#        13072
#        24894
#        39052
#        63897
#        76002
#        94000
#        116990
#        133935
#        149470
#        168537
#        187215
#        206205
#        224490
#        246957
#
# Disc length: 3445 seconds
#
# Revision: 2
# Processed by: cddbd v1.5.2PL0 Copyright (c) Steve Scherf et al.
# Submitted via: ExactAudioCopy v0.95b4
#
DISCID=d90d730f
DTITLE=Chris Cain - Unscheduled Flight
DYEAR=1997
DGENRE=Blues
TTITLE0=Drinking Straight Tequila
TTITLE1=Helping Hand
TTITLE2=Good Old Days
TTITLE3=Do You Call That A Buddy
TTITLE4=Blues For Curtis J
TTITLE5=Good News
TTITLE6=Change My Luck
TTITLE7=I Still Want To Believe
TTITLE8=Living On A Fault Line
TTITLE9=Something's Got To Give
TTITLE10=Bad Situation
TTITLE11=The Day Your Luck Goes Away
TTITLE12=You Give Me The Strength
TTITLE13=Three Nights Without My Baby
TTITLE14=Unscheduled Flight
EXTD=
EXTT0=
EXTT1=
EXTT2=
EXTT3=
EXTT4=
EXTT5=
EXTT6=
EXTT7=
EXTT8=
EXTT9=
EXTT10=
EXTT11=
EXTT12=
EXTT13=
EXTT14=
PLAYORDER=
